# xmcd
#
# Track frame offsets:
#	150
#	11663
#	28437
#	43136
#	59768
#	75775
#	92920
#	105175
#	119555
#	137567
#	149170
#	163239
#
# Disc length: 2357 seconds
#
# Revision: 1
# Processed by: cddbd v1.5.1PL2 Copyright (c) Steve Scherf et al.
# Submitted via: audiograbber 1.82.01
#
DISCID=ab09330c
DTITLE=Zellberg Duo mit Doris - 30 Jahre Zellberg Duo mit Doris
DYEAR=2003
DGENRE=Volkstümliche Musik
TTITLE0=Heut ist ein Ehrentag für dich (Tausend Wünsche)
TTITLE1=Hoamat, dahoamsein
TTITLE2=Nur "AN-TON" aus Tirol
TTITLE3=Hüter der Sterne
TTITLE4=Weiße Orchideen
TTITLE5=Die alten Leut
TTITLE6=Goldene Ringe
TTITLE7=Die Schwalben sind wieder gekommen
TTITLE8=Heimatklänge von den Bergen
TTITLE9=Zwischen 50 und 60
TTITLE10=Weil die Liebe niemals schläft
TTITLE11=Das Brautlied
EXTD=
EXTT0=
EXTT1=
EXTT2=
EXTT3=
EXTT4=
EXTT5=
EXTT6=
EXTT7=
EXTT8=
EXTT9=
EXTT10=
EXTT11=
PLAYORDER=
